<?xml version="1.0" encoding="UTF-8"?>
<!DOCTYPE svg PUBLIC "-//W3C//DTD SVG 1.1//EN" "http://www.w3.org/Graphics/SVG/1.1/DTD/svg11.dtd">
<!-- Creator: CorelDRAW -->
<svg xmlns="http://www.w3.org/2000/svg" xml:space="preserve" width="0.841291in" height="0.841291in" version="1.1" style="shape-rendering:geometricPrecision; text-rendering:geometricPrecision; image-rendering:optimizeQuality; fill-rule:evenodd; clip-rule:evenodd"
viewBox="0 0 839.05 839.05"
 xmlns:xlink="http://www.w3.org/1999/xlink"
 xmlns:xodm="http://www.corel.com/coreldraw/odm/2003">
 <defs>
  <style type="text/css">
   <![CDATA[
    .fil0 {fill:#E90A1E;fill-rule:nonzero}
    .fil1 {fill:white;fill-rule:nonzero}
   ]]>
  </style>
 </defs>
 <g id="Layer_x0020_1">
  <metadata id="CorelCorpID_0Corel-Layer"/>
  <rect class="fil0" width="839.05" height="839.05"/>
  <g>
   <path class="fil1" d="M559.45 236.54c-38.94,-12.52 -87.4,-19.92 -139.91,-19.92 -52.51,0 -100.98,7.4 -139.93,19.92 -103.57,33.3 -174.73,102.45 -174.73,182.35 0,112.42 140.87,203.56 314.66,203.56 173.78,0 314.63,-91.15 314.63,-203.56 0,-79.9 -71.16,-149.03 -174.72,-182.35l0 0zm-139.91 298.39c-25.93,0 -47.11,-50.99 -48.36,-115.06 15.59,1.4 31.77,2.15 48.36,2.15 16.59,0 32.74,-0.75 48.35,-2.15 -1.26,64.07 -22.42,115.06 -48.35,115.06l0 0zm-45.09 -165.22c7.08,-44.97 24.58,-76.83 45.09,-76.83 20.51,0 37.99,31.85 45.06,76.83 -14.41,1.3 -29.5,2.03 -45.06,2.03 -15.56,0 -30.66,-0.72 -45.09,-2.03l0 0zm117.7 -3.4c-10.52,-70.59 -39.06,-121.19 -72.62,-121.19 -33.56,0 -62.11,50.6 -72.64,121.19 -63.91,-9.97 -108.6,-32.68 -108.6,-59.14 0,-35.64 81.14,-64.55 181.22,-64.55 100.09,0 181.21,28.9 181.21,64.55 0,26.45 -44.67,49.16 -108.6,59.14l0.01 0zm-341.37 45.12c0,-34.46 13.27,-66.76 36.4,-94.54 -0.26,1.93 -0.4,3.88 -0.4,5.83 0,43.35 65.12,80.2 155.89,93.75 -0.07,3.27 -0.13,6.56 -0.13,9.87 0,80.61 22.36,148.87 53.26,172.41 -137.33,-8.39 -245.04,-89.03 -245.04,-187.31l0.01 -0.01zm292.42 187.32c30.9,-23.54 53.24,-91.81 53.24,-172.41 0,-3.31 -0.03,-6.6 -0.1,-9.87 90.77,-13.55 155.89,-50.4 155.89,-93.75 0,-1.95 -0.16,-3.9 -0.42,-5.83 23.13,27.78 36.4,60.08 36.4,94.54 0,98.28 -107.71,178.92 -245.01,187.31l-0 0.01zm0 0l0 0 0 0z"/>
  </g>
 </g>
</svg>
